<svg xmlns="http://www.w3.org/2000/svg" width="24" height="24" fill="none"><g clip-path="url(#a)"><path fill="#fff" d="M12 24a3 3 0 0 0 3-3H9a3 3 0 0 0 3 3Zm0-21.123-1.195.242A6.003 6.003 0 0 0 6 9c0 .942-.201 3.296-.689 5.613-.24 1.15-.564 2.35-.994 3.387h15.366c-.43-1.038-.753-2.235-.994-3.387C18.2 12.296 18 9.943 18 9a6.003 6.003 0 0 0-4.805-5.88L12 2.877ZM21.33 18c.335.67.722 1.202 1.17 1.5h-21c.448-.298.836-.83 1.17-1.5 1.35-2.7 1.83-7.68 1.83-9 0-3.63 2.58-6.66 6.008-7.351a1.5 1.5 0 1 1 2.985 0A7.503 7.503 0 0 1 19.5 9c0 1.32.48 6.3 1.83 9Z"/></g><defs><clipPath id="a"><path fill="#fff" d="M0 0h24v24H0z"/></clipPath></defs></svg>